<svg width="120" height="27" viewBox="0 0 120 27" fill="none" xmlns="http://www.w3.org/2000/svg">
<path d="M112.877 3.54883C112.34 3.61109 111.889 3.75896 111.165 4.10916C110.519 4.42046 110.324 4.56832 109.639 5.25317C109.203 5.6812 108.814 6.10145 108.767 6.18706C108.658 6.39718 108.611 6.32714 108.518 5.79016C108.284 4.45937 108.074 4.03134 107.592 3.88348C107.42 3.83678 106.782 3.81343 105.972 3.829C104.478 3.85235 104.338 3.89904 104.065 4.44381C103.941 4.68506 103.933 5.47108 103.925 14.9734C103.925 22.4756 103.948 25.3161 104.011 25.534C104.065 25.6975 104.19 25.9154 104.291 26.0087C104.478 26.1877 104.509 26.1877 106.494 26.1877C108.386 26.1877 108.51 26.18 108.674 26.0321C109.071 25.6741 109.063 25.8609 109.063 18.4754C109.063 11.697 109.063 11.5958 109.226 11.1522C109.834 9.47122 110.838 8.48286 112.262 8.17156C112.823 8.04704 114.115 8.1093 114.629 8.28051C115.073 8.42838 115.937 8.83306 116.225 9.02762C117.151 9.65021 117.898 9.84477 118.225 9.55682C118.303 9.48678 118.576 9.09766 118.825 8.70076C119.074 8.30386 119.44 7.73575 119.627 7.44002C120.047 6.79408 120.109 6.3427 119.829 5.9458C119.658 5.71233 117.914 4.49828 117.392 4.26481C116.832 4.00021 116.295 3.81343 115.781 3.6967C115.267 3.57218 113.43 3.47879 112.877 3.54883Z" fill="#87231E"/>
<path d="M86.4485 0.140436C86.3239 0.226042 86.176 0.334995 86.1293 0.397254C86.0826 0.459513 85.4053 2.11716 84.6191 4.0861C83.8329 6.05503 83.1634 7.69711 83.1322 7.74381C83.0933 7.78272 83.0622 7.86054 83.0622 7.91502C83.0622 7.9695 82.9921 8.1874 82.8987 8.38974C82.7196 8.79443 82.6107 9.05125 82.5095 9.31585C82.4705 9.41702 82.4005 9.58823 82.3538 9.70496C82.2136 10.0396 82.1124 10.2964 82.0502 10.4676C82.019 10.5532 81.949 10.7245 81.8945 10.8568C81.84 10.9813 81.7699 11.1603 81.7388 11.2459C81.6687 11.4326 81.5597 11.6973 81.404 12.063C81.1861 12.5689 76.4297 24.4681 76.2428 24.9818C76.0015 25.6433 76.0015 25.9545 76.2428 26.1102C76.4063 26.2191 76.7333 26.2269 78.5704 26.2114C80.5867 26.188 80.719 26.1802 80.8825 26.0324C81.0849 25.8534 81.1861 25.6277 81.7388 24.2035C81.9568 23.6276 82.1825 23.0673 82.2214 22.9583C82.3226 22.7249 82.3693 22.6003 82.6029 21.9855C82.6963 21.7287 82.8286 21.4719 82.8909 21.4174C82.9843 21.3474 84.1909 21.324 88.309 21.324C91.2283 21.324 93.6493 21.3552 93.696 21.3863C93.7583 21.433 94.0307 22.0789 94.6613 23.6977C94.6924 23.7833 94.7547 23.9467 94.8092 24.0634C94.887 24.2658 94.926 24.3669 95.1206 24.8417C95.1595 24.9428 95.2374 25.1452 95.2918 25.293C95.4631 25.76 95.6889 26.0791 95.8835 26.1569C95.9847 26.1958 96.9889 26.2269 98.1099 26.2269C100.546 26.2269 100.539 26.2269 100.531 25.5966C100.523 25.3397 100.461 25.044 100.352 24.8339C100.266 24.6393 100.188 24.4603 100.188 24.4214C100.188 24.3825 100.118 24.2113 100.04 24.0245C99.9626 23.8455 97.9231 18.7559 95.5098 12.7245C93.1044 6.68541 91.0336 1.53348 90.9091 1.2611C90.7923 0.996496 90.6911 0.739678 90.6911 0.700766C90.6911 0.654072 90.551 0.48286 90.3797 0.311648L90.0684 0.000353294H88.3791C86.8689 0.000353294 86.6587 0.015918 86.4485 0.140436ZM88.4803 7.05896C88.5426 7.24574 88.8228 8.01619 88.9007 8.21075C88.9629 8.35862 89.1264 8.80999 89.4378 9.66605C89.5156 9.89174 89.6947 10.3742 89.8348 10.74C89.9749 11.1058 90.154 11.5883 90.2318 11.8062C90.5432 12.67 90.7067 13.1214 90.769 13.2693C90.8001 13.3549 90.9013 13.6273 90.9947 13.8685C91.0881 14.1176 91.2283 14.5222 91.3217 14.7635C91.4151 15.0125 91.5163 15.2849 91.5474 15.3705C91.7343 15.8297 91.9367 16.4056 91.9834 16.5924L92.0301 16.8103H88.3246C84.6658 16.8103 84.6191 16.8103 84.6191 16.6546C84.6191 16.569 84.6502 16.4367 84.6892 16.3589C84.7592 16.2266 85.4365 14.4911 85.7167 13.7129C86.2617 12.2109 86.4952 11.5727 86.5653 11.4015C86.6275 11.2537 86.7832 10.8256 87.1024 9.93844C87.2814 9.45593 87.8731 7.88389 87.9665 7.66598C88.0054 7.58038 88.0755 7.37804 88.13 7.21461C88.239 6.91109 88.4102 6.83327 88.4803 7.05896Z" fill="#87231E"/>
<path d="M61.9269 3.54098C60.6268 3.78224 59.0388 4.48265 57.9178 5.32314C57.0848 5.94573 56.1351 6.93409 55.5824 7.75902C55.3488 8.10923 55.1309 8.39718 55.0997 8.40496C55.0608 8.40496 55.0375 7.43216 55.0375 6.24146C55.0375 4.38926 55.0219 4.05462 54.9129 3.90675C54.7416 3.65772 54.3368 3.69663 54.2045 3.96901C54.0799 4.21027 54.0566 25.6273 54.1811 25.9464C54.2746 26.2032 54.5859 26.2811 54.8428 26.1176L55.0375 25.9931V19.0123C55.0375 11.8136 55.0452 11.6269 55.3644 10.3895C55.9171 8.27266 57.7232 6.2259 59.9651 5.17528C60.3544 4.9885 60.837 4.78616 61.0316 4.7239C62.464 4.24918 64.379 4.2414 65.9048 4.70055C68.466 5.47879 70.6612 7.80572 71.4786 10.584C71.8212 11.7592 71.8523 12.4907 71.8523 19.417C71.8523 23.0125 71.8834 25.9931 71.9146 26.0398C72.0236 26.211 72.3194 26.2421 72.5218 26.1098L72.7164 25.9853L72.6852 18.6543L72.6619 11.3233L72.4517 10.5685C71.3774 6.67728 68.6606 4.12466 64.9629 3.54098C64.1144 3.4009 62.6664 3.40868 61.9269 3.54098Z" fill="#DC3535"/>
<path d="M36.3932 3.55677C33.1237 3.95367 30.4925 5.47902 28.4918 8.13281C25.4558 12.1641 25.4792 18.0164 28.5463 22.0477C30.1967 24.219 32.2829 25.6509 34.7974 26.3358C36.6579 26.8416 39.04 26.8027 40.9473 26.2424C44.7462 25.1217 47.8756 21.9465 48.9732 18.102C49.2145 17.2693 49.4325 15.7907 49.4325 15.0124C49.4325 13.0357 48.6541 10.4909 47.5408 8.83322C45.5869 5.9304 42.4575 3.97702 39.1179 3.5879C38.464 3.51008 36.9148 3.48673 36.3932 3.55677ZM38.7286 4.47509C41.3287 4.75526 43.3916 5.72805 45.2522 7.52578C46.1474 8.38962 46.8636 9.3702 47.4007 10.4675C47.9379 11.5415 48.2181 12.4676 48.3816 13.6116C48.9187 17.3938 47.3073 21.2772 44.2557 23.573C43.3605 24.2501 42.7299 24.6159 41.8036 24.9816C40.5969 25.4719 39.7873 25.6431 38.0669 25.7832C37.4675 25.8377 36.0429 25.682 35.1944 25.4797C31.1308 24.4991 27.908 20.927 27.2541 16.6778C27.1373 15.8918 27.1529 14.0163 27.2852 13.2303C27.8924 9.61924 30.2511 6.63859 33.6297 5.19885C34.4938 4.83308 35.4124 4.59961 36.4711 4.47509C37.5999 4.34279 37.5609 4.34279 38.7286 4.47509Z" fill="#DC3535"/>
<path d="M0.155693 0.155636C0 0.311283 0 0.412453 0 13.1133V25.9153L0.163478 26.0787C0.319171 26.2343 0.358094 26.2343 5.1223 26.2032C10.1901 26.1721 10.5171 26.1487 11.9884 25.7752C14.9154 25.0203 17.5777 23.2615 19.4383 20.8567C21.1042 18.7088 22.0383 15.9149 22.0306 13.1133C22.0228 10.7397 21.3922 8.49055 20.1934 6.52161C18.1849 3.21411 14.6351 0.809354 10.9374 0.241242C9.49727 0.0233354 8.95235 -1.1725e-05 4.74864 -1.1725e-05C0.412586 -1.1725e-05 0.311386 -1.1725e-05 0.155693 0.155636ZM10.268 1.08174C14.1291 1.6265 17.4999 3.8367 19.4383 7.08194C21.073 9.81355 21.5168 13.3078 20.6371 16.3974C19.4616 20.491 16.0909 23.7362 11.8716 24.818C10.268 25.2304 9.96435 25.2538 5.29356 25.2538H0.973081L0.949727 13.1911C0.941942 6.55274 0.949727 1.08174 0.973081 1.02726C1.01979 0.89496 9.2793 0.941655 10.268 1.08174Z" fill="#DC3535"/>
</svg>
